<svg width="70" height="70" viewBox="0 0 70 70" fill="none" xmlns="http://www.w3.org/2000/svg">
<path d="M64.0706 15.5259L63.0234 15.8579L57.4463 16.3547L55.871 18.8703L54.7279 18.5071L50.2894 14.5054L49.6455 12.4243L48.7832 10.205L45.9935 7.70278L42.7025 7.05884L42.6268 8.56508L45.8509 11.7112L47.4285 13.5695L45.6549 14.4964L44.211 14.0709L42.0475 13.1685L42.121 11.4238L39.2823 10.2563L38.3398 14.3583L35.4788 15.0067L35.7618 17.295L39.4895 18.0125L40.1335 14.3561L43.2106 14.8106L44.641 15.6484H46.9361L48.5069 18.7946L52.6713 23.0192L52.3661 24.6613L49.0082 24.2335L43.2061 27.1636L39.0283 32.1747L38.4846 34.394H36.9851L34.191 33.1061L31.4771 34.394L32.1522 37.2571L33.3331 35.8957L35.4098 35.8311L35.2649 38.4024L36.9851 38.906L38.703 40.8356L41.5082 40.0468L44.7123 40.5526L48.4334 41.553L50.2917 41.7714L53.4423 45.3476L59.5229 48.9238L55.5902 56.4372L51.4392 58.3668L49.8639 62.6604L43.8567 66.6711L43.2172 68.984C58.5737 65.2852 69.9976 51.4907 69.9976 34.9978C69.9931 27.7941 67.8095 21.0896 64.0706 15.5259Z" fill="#F6F6F5"/>
<path d="M39.0262 53.2909L36.4772 48.565L38.8167 43.6898L36.4772 42.9901L33.8501 40.352L28.0302 39.0463L26.0984 35.0044V37.4041H25.2472L20.2316 30.6038V25.0178L16.5551 19.0396L10.7173 20.0802H6.78464L4.80603 18.7834L7.33054 16.7825L4.81271 17.364C1.77795 22.5467 0.00878906 28.5605 0.00878906 35.0022C0.00878906 54.327 15.675 69.9999 35.0021 69.9999C36.4905 69.9999 37.95 69.8685 39.3938 69.6947L39.0284 65.4545C39.0284 65.4545 40.6349 59.1577 40.6349 58.9438C40.6327 58.7277 39.0262 53.2909 39.0262 53.2909Z" fill="#F6F6F5"/>
<path d="M13.0122 11.2857L19.2288 10.4189L22.0942 8.84804L25.3184 9.77718L30.4699 9.49198L32.2346 6.71791L34.8081 7.14127L41.0581 6.55526L42.7805 4.65686L45.2092 3.03476L48.645 3.55169L49.8972 3.3623C45.3718 1.23217 40.3362 0 34.9997 0C24.1374 0 14.4249 4.95098 8.01221 12.725H8.03003L13.0122 11.2857ZM36.4792 3.48039L40.0532 1.51292L42.3482 2.83868L39.026 5.36765L35.8531 5.68627L34.4249 4.75936L36.4792 3.48039ZM25.8932 3.76783L27.4708 4.42513L29.5363 3.76783L30.6615 5.71747L25.8932 6.9697L23.6004 5.62834C23.5982 5.62834 25.842 4.18449 25.8932 3.76783Z" fill="#F6F6F5"/>
</svg>
